# xmcd
#
# Track frame offsets:
#	150
#	24550
#	39134
#	65030
#	92310
#	115462
#	131438
#	156526
#	176414
#	199382
#	218110
#	226998
#
# Disc length: 3351 seconds
#
# Revision: 0
# Processed by: cddbd v1.5.2PL0 Copyright (c) Steve Scherf et al.
# Submitted via: dBpowerAMP V4.0
#
DISCID=a20d150c
DTITLE=Mike Wells - Keeping The Focus - Disc 2
DYEAR=1900
DGENRE=
TTITLE0=KTF 02-01
TTITLE1=KTF 02-02
TTITLE2=KTF 02-03
TTITLE3=KTF 02-04
TTITLE4=KTF 02-05
TTITLE5=KTF 02-06
TTITLE6=KTF 02-07
TTITLE7=KTF 02-08
TTITLE8=KTF 02-09
TTITLE9=KTF 02-10
TTITLE10=KTF 02-11
TTITLE11=KTF 02-12
EXTD=free download from http://gracehead.com
EXTT0=
EXTT1=
EXTT2=
EXTT3=
EXTT4=
EXTT5=
EXTT6=
EXTT7=
EXTT8=
EXTT9=
EXTT10=
EXTT11=
PLAYORDER=
